<svg width="400" height="400" viewBox="0 0 400 400" fill="none" xmlns="http://www.w3.org/2000/svg">
<path fill-rule="evenodd" clip-rule="evenodd" d="M177.32 22.1649C177.32 9.92359 187.243 0 199.485 0C211.726 0 221.649 9.92359 221.649 22.1649V79.4359C235.62 79.7208 249.387 81.2428 262.335 86.6973C277.032 92.8885 290.386 101.963 301.634 113.403C312.882 124.843 321.805 138.424 327.893 153.37C333.98 168.317 337.113 184.337 337.113 200.515C337.113 216.694 333.98 232.714 327.893 247.66C321.805 262.607 312.882 276.188 301.634 287.628C290.386 299.068 277.032 308.142 262.335 314.334C249.387 319.788 235.62 321.31 221.649 321.595V376.804C221.649 389.045 211.726 398.969 199.485 398.969C187.243 398.969 177.32 389.045 177.32 376.804V22.1649ZM221.649 263.966V137.065C228.199 137.012 234.634 137.18 240.729 139.748C248.575 143.053 255.705 147.898 261.711 154.006C267.716 160.114 272.48 167.365 275.73 175.345C278.98 183.325 280.653 191.878 280.653 200.515C280.653 209.153 278.98 217.706 275.73 225.686C272.48 233.666 267.716 240.917 261.711 247.025C255.705 253.133 248.575 257.978 240.729 261.283C234.634 263.851 228.199 264.019 221.649 263.966ZM0 200C0 102.951 69.1245 22.0459 160.825 3.83513V45.5677C91.7962 63.0244 40.7144 125.547 40.7144 200C40.7144 274.453 91.7962 336.976 160.825 354.432V396.165C69.1245 377.954 0 297.049 0 200ZM359.286 200C359.286 274.823 307.695 337.597 238.144 354.689V396.367C330.357 378.56 400 297.413 400 200C400 102.587 330.357 21.4403 238.144 3.63323V45.3107C307.695 62.403 359.286 125.177 359.286 200ZM127.835 79.3814H159.794V137.113H127.835C111.893 137.113 98.9691 124.19 98.9691 108.247C98.9691 92.3052 111.893 79.3814 127.835 79.3814ZM159.794 263.918H127.835C111.893 263.918 98.9691 276.841 98.9691 292.783C98.9691 308.726 111.893 321.649 127.835 321.649H159.794V263.918Z" fill="currentColor"/>
<path fill-rule="evenodd" clip-rule="evenodd" d="M177.32 22.1649C177.32 9.92359 187.243 0 199.485 0C211.726 0 221.649 9.92359 221.649 22.1649V79.4359C235.62 79.7208 249.387 81.2428 262.335 86.6973C277.032 92.8885 290.386 101.963 301.634 113.403C312.882 124.843 321.805 138.424 327.893 153.37C333.98 168.317 337.113 184.337 337.113 200.515C337.113 216.694 333.98 232.714 327.893 247.66C321.805 262.607 312.882 276.188 301.634 287.628C290.386 299.068 277.032 308.142 262.335 314.334C249.387 319.788 235.62 321.31 221.649 321.595V376.804C221.649 389.045 211.726 398.969 199.485 398.969C187.243 398.969 177.32 389.045 177.32 376.804V22.1649ZM221.649 263.966V137.065C228.199 137.012 234.634 137.18 240.729 139.748C248.575 143.053 255.705 147.898 261.711 154.006C267.716 160.114 272.48 167.365 275.73 175.345C278.98 183.325 280.653 191.878 280.653 200.515C280.653 209.153 278.98 217.706 275.73 225.686C272.48 233.666 267.716 240.917 261.711 247.025C255.705 253.133 248.575 257.978 240.729 261.283C234.634 263.851 228.199 264.019 221.649 263.966ZM0 200C0 102.951 69.1245 22.0459 160.825 3.83513V45.5677C91.7962 63.0244 40.7144 125.547 40.7144 200C40.7144 274.453 91.7962 336.976 160.825 354.432V396.165C69.1245 377.954 0 297.049 0 200ZM359.286 200C359.286 274.823 307.695 337.597 238.144 354.689V396.367C330.357 378.56 400 297.413 400 200C400 102.587 330.357 21.4403 238.144 3.63323V45.3107C307.695 62.403 359.286 125.177 359.286 200ZM127.835 79.3814H159.794V137.113H127.835C111.893 137.113 98.9691 124.19 98.9691 108.247C98.9691 92.3052 111.893 79.3814 127.835 79.3814ZM159.794 263.918H127.835C111.893 263.918 98.9691 276.841 98.9691 292.783C98.9691 308.726 111.893 321.649 127.835 321.649H159.794V263.918Z" fill="currentColor"/>
</svg>
