<?xml version="1.0" encoding="iso-8859-1"?>
<!-- Uploaded to: SVG Repo, www.svgrepo.com, Generator: SVG Repo Mixer Tools -->
<!DOCTYPE svg PUBLIC "-//W3C//DTD SVG 1.1//EN" "http://www.w3.org/Graphics/SVG/1.1/DTD/svg11.dtd">
<svg fill="#000000" height="800px" width="800px" version="1.1" id="Capa_1" xmlns="http://www.w3.org/2000/svg" xmlns:xlink="http://www.w3.org/1999/xlink" 
	 viewBox="0 0 381.452 381.452" xml:space="preserve">
<path d="M375.042,6.398c-4.238-4.238-10.359-6.387-18.194-6.387c-27.513,0-72.114,26.768-96.251,42.724l-1.915,1.266L253.195,87.3
	L238.677,57.86l-4.805,3.521c-31.026,22.742-62.352,49.506-88.206,75.36c-4.745,4.744-9.415,9.569-13.882,14.34l-0.926,0.988
	l-19.387,85.331l-10.208-50.92l-6.706,9.188c-3.954,5.418-7.685,10.834-11.09,16.099l-0.619,0.957l-8.26,65.172l-12.895-26.149
	l-3.535,12.539c-4.677,16.591-4.611,30.585,0.048,41.269L3.661,360.101c-4.881,4.882-4.881,12.796,0,17.678
	c2.441,2.44,5.64,3.661,8.839,3.661s6.398-1.221,8.839-3.661l54.522-54.522c5.344,2.335,11.531,3.518,18.518,3.518
	c0.001,0,0.001,0,0.002,0c6.888,0,14.55-1.176,22.772-3.493l12.54-3.534l-26.151-12.896l65.172-8.26l0.956-0.619
	c5.254-3.396,10.67-7.128,16.1-11.09l9.189-6.705l-50.92-10.209l85.332-19.388l0.989-0.926c4.782-4.479,9.607-9.149,14.34-13.882
	c36.177-36.177,72.111-80.636,98.588-121.978l14.491-24.082l0.079-0.136C381.75,46.873,387.532,18.887,375.042,6.398z"/>
</svg>